<svg width="457" height="332" viewBox="0 0 457 332" fill="none" xmlns="http://www.w3.org/2000/svg">
<path d="M398.716 243.438L392.981 328.5C392.95 328.932 392.753 329.337 392.43 329.633C392.108 329.929 391.684 330.094 391.242 330.096C391.01 330.097 390.78 330.051 390.567 329.962C390.353 329.873 390.16 329.742 389.998 329.578C389.837 329.414 389.711 329.22 389.628 329.007C389.546 328.794 389.507 328.567 389.516 328.339L391.872 243.438H398.716Z" fill="#263238" stroke="#263238" stroke-linecap="round" stroke-linejoin="round"/>
<path d="M413.385 243.438L419.119 328.5C419.148 328.931 419.342 329.336 419.663 329.632C419.983 329.928 420.406 330.094 420.846 330.096C421.079 330.096 421.309 330.051 421.523 329.962C421.738 329.873 421.932 329.743 422.094 329.579C422.256 329.415 422.383 329.221 422.468 329.008C422.552 328.795 422.592 328.567 422.585 328.339L420.203 243.487L413.385 243.438Z" fill="#263238" stroke="#263238" stroke-linecap="round" stroke-linejoin="round"/>
<path d="M355.892 243.438L361.626 328.5C361.654 328.931 361.849 329.336 362.169 329.632C362.489 329.928 362.912 330.094 363.352 330.096C363.585 330.096 363.815 330.051 364.03 329.962C364.244 329.873 364.438 329.743 364.6 329.579C364.762 329.415 364.889 329.221 364.974 329.008C365.058 328.795 365.098 328.567 365.092 328.339L362.697 243.487L355.892 243.438Z" fill="#263238" stroke="#263238" stroke-linecap="round" stroke-linejoin="round"/>
<path d="M332.463 243.438L326.729 328.5C326.697 328.932 326.5 329.337 326.178 329.633C325.855 329.929 325.431 330.094 324.99 330.096C324.757 330.095 324.528 330.048 324.314 329.958C324.101 329.869 323.907 329.739 323.746 329.575C323.584 329.411 323.457 329.218 323.372 329.006C323.287 328.793 323.245 328.567 323.25 328.339L325.645 243.487L332.463 243.438Z" fill="#263238" stroke="#263238" stroke-linecap="round" stroke-linejoin="round"/>
<path d="M432.365 157.683C432.365 157.683 375.149 155.579 370.309 155.579C365.47 155.579 364.348 157.683 364.348 157.683L356.181 214.238C356.181 214.238 330.787 207.121 325.809 208.049C320.831 208.977 328.266 244.465 328.266 244.465H357.001L357.517 242.336H422.396L439.624 161.731C438.578 158.042 432.365 157.683 432.365 157.683Z" fill="white" stroke="#263238" stroke-linecap="round" stroke-linejoin="round"/>
<path d="M410.587 193.059C410.587 193.059 416.41 230.193 409.73 234.526C408.697 235.194 403.089 238.363 397.846 237.843C393.637 237.422 363.894 237.843 363.894 237.843C363.894 237.843 359.761 230.119 358.929 224.425C358.097 218.731 364.6 194.297 364.6 194.297L410.587 193.059Z" fill="white" stroke="#263238" stroke-linecap="round" stroke-linejoin="round"/>
<path d="M361.878 212.951C361.878 212.951 318.827 217.345 316.798 218.533C314.769 219.722 305.455 227.705 307.056 232.892C308.657 238.078 304.624 238.474 308.316 239.279C312.009 240.083 364.348 240.071 364.348 240.071" fill="#00DFD8"/>
<path d="M361.878 212.951C361.878 212.951 318.827 217.345 316.798 218.533C314.769 219.722 305.455 227.705 307.056 232.892C308.657 238.078 304.624 238.474 308.316 239.279C312.009 240.083 364.348 240.071 364.348 240.071" stroke="#263238" stroke-linecap="round" stroke-linejoin="round"/>
<path d="M322.721 244.403H425.017V236.902H322.721V244.403Z" fill="white" stroke="#263238" stroke-linecap="round" stroke-linejoin="round"/>
<path d="M400.858 214.548H339.231C339.231 214.548 335.992 218.137 335.576 225.688C335.16 233.238 335.992 234.86 341.676 236.828C347.36 238.796 397.846 237.794 397.846 237.794" fill="#00DFD8"/>
<path d="M400.858 214.548H339.231C339.231 214.548 335.992 218.137 335.576 225.688C335.16 233.238 335.992 234.86 341.676 236.828C347.36 238.796 397.846 237.794 397.846 237.794" stroke="#263238" stroke-linecap="round" stroke-linejoin="round"/>
<path d="M352.3 310.601L345.847 295.586L335.273 297.555L343.364 310.948L338.701 320.12L328.619 326.593C328.619 326.593 327.447 327.732 332.488 327.348C337.529 326.965 347.99 327.348 347.99 327.348L354.581 319.736C354.581 319.736 356.975 315.862 352.3 310.601Z" fill="white" stroke="#263238" stroke-linecap="round" stroke-linejoin="round"/>
<path d="M355.123 317.161L355.387 326.977H353.812L351.707 322.075L355.123 317.161Z" fill="#263238" stroke="#263238" stroke-linecap="round" stroke-linejoin="round"/>
<path d="M348.002 327.398L354.593 319.785C354.593 319.785 356.295 316.951 353.951 312.866C349.263 320.739 343.024 323.103 343.024 323.103L336.521 321.568L328.632 326.643C328.632 326.643 327.46 327.782 332.501 327.398C337.542 327.014 348.002 327.398 348.002 327.398Z" fill="#263238" stroke="#263238" stroke-linecap="round" stroke-linejoin="round"/>
<path d="M326.956 234.093L348.569 298.272L333.232 300.946L302.985 234.105C302.985 234.105 300.553 224.128 307.043 220.947C313.534 217.766 332.627 216.157 332.627 216.157" fill="#00DFD8"/>
<path d="M326.956 234.093L348.569 298.272L333.232 300.946L302.985 234.105C302.985 234.105 300.553 224.128 307.043 220.947C313.534 217.766 332.627 216.157 332.627 216.157" stroke="#263238" stroke-linecap="round" stroke-linejoin="round"/>
<path d="M396.283 244.391C396.283 244.391 388.835 208.854 393.826 207.975C398.816 207.096 424.198 214.164 424.198 214.164L432.365 157.683C432.365 157.683 440.985 156.346 441.893 163.872C442.8 171.398 425.017 244.391 425.017 244.391H396.283Z" fill="#263238" stroke="#263238" stroke-linecap="round" stroke-linejoin="round"/>
<path d="M308.581 139.76L304.737 133.571C304.367 132.978 303.845 132.49 303.224 132.156C302.603 131.821 301.904 131.652 301.196 131.664L297.579 131.726L291.391 129.907C290.998 129.794 290.579 129.799 290.189 129.92C289.799 130.041 289.454 130.273 289.198 130.587L288.971 130.872L294.668 133.348L288.984 135.403L282.947 132.395C282.709 132.275 282.436 132.241 282.175 132.3C281.915 132.359 281.684 132.507 281.523 132.717C281.34 132.95 281.258 133.245 281.296 133.537C281.334 133.83 281.488 134.095 281.725 134.276L290.168 140.676C290.433 140.878 290.739 141.022 291.065 141.099C291.391 141.176 291.729 141.183 292.059 141.121L301.397 139.277L304.006 142.074L308.581 139.76Z" fill="white" stroke="#263238" stroke-linecap="round" stroke-linejoin="round"/>
<path d="M373.687 127.06L339.067 162.622L306.023 136.393L301.46 139.648L337.819 180.112L369.339 163.439L373.687 127.06Z" fill="white" stroke="#263238" stroke-linecap="round" stroke-linejoin="round"/>
<path d="M425.484 136.145L443.632 190.918L427.979 191.364L412.415 165.654C412.415 165.654 421.161 139.722 425.484 136.145Z" fill="white" stroke="#263238" stroke-linecap="round" stroke-linejoin="round"/>
<path d="M405.735 126.738L425.484 136.207L408.949 181.622L410.902 194.285L364.6 194.359L370.12 173.96L366.339 160.889C365.848 159.193 365.822 157.399 366.264 155.69L373.674 127.122L393.133 124.052L405.735 126.738Z" fill="white" stroke="#263238" stroke-linecap="round" stroke-linejoin="round"/>
<path d="M404.79 124.077C404.79 124.077 408.672 126.651 408.798 128.941C408.861 130.29 408.798 132.655 408.672 134.462C408.602 135.874 408.274 137.262 407.701 138.559L400.707 146.852L392.616 140.577L385.899 143.943C385.899 143.943 384.638 133.831 387.575 126.775C390.511 119.72 403.29 122.307 404.79 124.077Z" fill="white" stroke="#263238" stroke-linecap="round" stroke-linejoin="round"/>
<path d="M410.348 104.457C410.348 104.457 408.76 110.065 408.016 113.778C407.273 117.492 405.773 124.918 405.912 127.703C406.05 130.488 394.116 142.347 392.616 140.577C391.116 138.806 389.541 128.52 389.541 128.52L391.028 111.884C391.028 111.884 406.58 94.9636 410.348 104.457Z" fill="white" stroke="#263238" stroke-linecap="round" stroke-linejoin="round"/>
<path d="M385.407 95.7929C385.407 95.7929 383.277 99.2464 383.277 100.744C383.277 102.242 384.021 105.175 383.895 106.03C383.769 106.884 381.652 109.743 381.374 110.708C381.235 111.101 381.246 111.531 381.407 111.916C381.567 112.301 381.864 112.615 382.244 112.8C382.759 113.059 383.259 113.344 383.744 113.654C383.744 113.654 384.374 121.279 385.382 123.247C386.39 125.215 387.26 126.082 390.259 126.329C393.259 126.577 400.404 123.495 401.4 121.032C402.396 118.568 402.534 115.622 402.66 112.058C402.786 108.493 400.278 103.393 398.401 98.5284C396.523 93.6639 388.659 90.9902 385.407 95.7929Z" fill="white" stroke="#263238" stroke-linecap="round" stroke-linejoin="round"/>
<path d="M417.733 120.97C423.044 120.97 427.349 116.741 427.349 111.525C427.349 106.309 423.044 102.081 417.733 102.081C412.422 102.081 408.117 106.309 408.117 111.525C408.117 116.741 412.422 120.97 417.733 120.97Z" fill="#263238" stroke="#263238" stroke-linecap="round" stroke-linejoin="round"/>
<path d="M385.357 95.2607C385.357 95.2607 389.226 91.9805 396.182 98.5037C403.139 105.027 400.493 114.459 405.143 116.415C409.793 118.37 418.401 108.592 419.397 103.715C420.392 98.8379 417.405 88.7251 408.117 86.7693C398.829 84.8136 387.449 86.1504 385.357 95.2607Z" fill="#263238" stroke="#263238" stroke-linecap="round" stroke-linejoin="round"/>
<path d="M385.357 95.2606C385.274 94.4936 385.371 93.7181 385.639 92.9932C385.908 92.2684 386.341 91.6131 386.906 91.0773C387.471 90.5415 388.153 90.1393 388.9 89.9011C389.647 89.663 390.439 89.5952 391.217 89.7029C397.518 90.0371 398.174 99.8034 401.488 103.715C404.803 107.626 406.466 106.97 406.466 106.97C406.466 106.97 400.833 108.592 397.178 106.636C393.523 104.68 391.759 93.6515 385.357 95.2606Z" fill="#263238" stroke="#263238" stroke-linecap="round" stroke-linejoin="round"/>
<path d="M395.653 88.5641C398.969 90.5758 401.601 93.5098 403.215 96.9936C406.076 102.947 406.076 107.861 412.868 107.515C412.868 107.515 409.655 108.22 404.651 105.757C399.648 103.294 398.577 96.288 395.363 93.4782C393.61 91.8485 391.342 90.857 388.936 90.6684" stroke="white" stroke-width="0.5" stroke-linecap="round" stroke-linejoin="round"/>
<path d="M419.397 103.715C419.397 103.715 419.107 112.652 412.125 114.533" stroke="white" stroke-width="0.5" stroke-linecap="round" stroke-linejoin="round"/>
<path d="M399.913 112.837C399.913 112.837 406.567 104.284 408.13 110.671C409.693 117.058 404.349 118.618 401.828 117.888C399.308 117.157 399.661 115.833 399.661 115.833" fill="white"/>
<path d="M399.913 112.837C399.913 112.837 406.567 104.284 408.13 110.671C409.693 117.058 404.349 118.618 401.828 117.888C399.308 117.157 399.661 115.833 399.661 115.833" stroke="#263238" stroke-linecap="round" stroke-linejoin="round"/>
<path d="M385.105 186.029C385.105 186.029 372.401 187.762 370.284 187.762C368.167 187.762 362.873 194.347 362.873 194.347H386.163L385.105 186.029Z" fill="white" stroke="#263238" stroke-linecap="round" stroke-linejoin="round"/>
<path d="M439.07 177.636L443.632 187.737C443.836 188.331 443.895 188.965 443.803 189.586C443.711 190.207 443.471 190.798 443.102 191.311C442.734 191.823 442.247 192.243 441.682 192.537C441.117 192.83 440.49 192.988 439.851 192.997L384.777 193.307L385.13 186.029L427.828 179.394" fill="white"/>
<path d="M439.07 177.636L443.632 187.737C443.836 188.331 443.895 188.965 443.803 189.586C443.711 190.207 443.471 190.798 443.102 191.311C442.734 191.823 442.247 192.243 441.682 192.537C441.117 192.83 440.49 192.988 439.851 192.997L384.777 193.307L385.13 186.029L427.828 179.394" stroke="#263238" stroke-linecap="round" stroke-linejoin="round"/>
<path d="M365.356 317.161L365.621 326.977H364.046L361.941 322.075L365.356 317.161Z" fill="#263238" stroke="#263238" stroke-linecap="round" stroke-linejoin="round"/>
<path d="M362.533 310.601L360.504 296.317L349.943 296.985L353.598 311.047L348.935 320.219L338.853 326.692C338.853 326.692 337.693 327.831 342.734 327.447C347.775 327.064 358.236 327.447 358.236 327.447L364.827 319.835C364.827 319.835 367.209 315.862 362.533 310.601Z" fill="white" stroke="#263238" stroke-linecap="round" stroke-linejoin="round"/>
<path d="M358.236 327.398L364.827 319.785C364.827 319.785 366.528 316.951 364.172 312.866C359.483 320.739 353.245 323.103 353.245 323.103L346.755 321.568L338.853 326.643C338.853 326.643 337.693 327.782 342.734 327.398C347.775 327.014 358.236 327.398 358.236 327.398Z" fill="#263238" stroke="#263238" stroke-linecap="round" stroke-linejoin="round"/>
<path d="M357.694 223.039L362.218 298.941L347.889 299.275L333.9 230.317C333.9 230.317 334.164 217.184 338.437 215.674C342.709 214.164 354.052 215.785 354.052 215.785" fill="#00DFD8"/>
<path d="M357.694 223.039L362.218 298.941L347.889 299.275L333.9 230.317C333.9 230.317 334.164 217.184 338.437 215.674C342.709 214.164 354.052 215.785 354.052 215.785" stroke="#263238" stroke-linecap="round" stroke-linejoin="round"/>
<path d="M295.058 59.6614L312.841 108.616C312.841 108.616 310.497 119.695 303.439 119.237C296.382 118.779 294.504 109.074 292.626 107.688C290.748 106.302 287.925 95.6815 287.925 95.6815L295.058 59.6614Z" fill="white" stroke="#263238" stroke-linecap="round" stroke-linejoin="round"/>
<path d="M249.058 49.8457L220.148 60.0947L231.238 138.831H283.401L295.058 59.6614L263.854 50.0685L249.058 49.8457Z" fill="white" stroke="#263238" stroke-linecap="round" stroke-linejoin="round"/>
<path d="M251.844 63.3377L256.015 69.5144L252.398 121.898L257.716 135.539L263.173 122.269L258.498 70.2942L262.253 61.3696L257.048 54.6483L251.844 63.3377Z" fill="#00DFD8" stroke="#263238" stroke-linecap="round" stroke-linejoin="round"/>
<path d="M257.616 60.7878L250.167 66.2713L245.265 51.9747L248.68 44.7336L263.917 44.3746L267.635 47.6548L266.891 65.9L257.616 60.7878Z" fill="white" stroke="#263238" stroke-linecap="round" stroke-linejoin="round"/>
<path d="M265.492 41.0201L264.333 50.217L255.99 60.7878L249.751 50.0685V32.8259C249.751 32.8259 260.678 35.5119 265.492 41.0201Z" fill="white" stroke="#263238" stroke-linecap="round" stroke-linejoin="round"/>
<path d="M245.467 21.9085C245.467 13.5533 251.667 6.78253 259.33 6.78253C266.992 6.78253 271.239 13.9247 271.239 22.2798C271.239 24.9782 270.672 29.6076 270.445 32.0708C270.054 36.2794 268.756 38.0618 266.223 41.8371C257.918 54.2151 251.1 36.0565 247.609 29.9542C246.196 27.5004 245.458 24.7276 245.467 21.9085Z" fill="white" stroke="#263238" stroke-linecap="round" stroke-linejoin="round"/>
<path d="M265.354 24.5326L266.526 33.1601L262.405 33.0487" fill="white"/>
<path d="M265.354 24.5326L266.526 33.1601L262.405 33.0487" stroke="#263238" stroke-linecap="round" stroke-linejoin="round"/>
<path d="M274.554 23.0349L254.742 23.1215C254.499 23.8782 254.461 24.6844 254.634 25.4597C254.806 26.235 255.183 26.9524 255.725 27.5405C256.985 28.7783 262.115 28.3451 262.934 28.0232C263.753 27.7014 264.194 24.1613 264.194 24.1613H265.669C265.669 24.1613 265.833 27.8747 267.95 28.1841C270.067 28.4936 272.827 28.3946 273.356 28.0232C275.7 26.476 274.554 23.0349 274.554 23.0349Z" fill="white" stroke="#263238" stroke-linecap="round" stroke-linejoin="round"/>
<path d="M247.911 31.3529C247.911 31.3529 252.373 40.327 253.431 43.4339C254.49 46.5407 259.733 48.9668 265.039 47.2339C270.344 45.501 268.908 37.7895 268.908 37.7895C268.908 37.7895 263.274 33.0611 262.228 34.0761C261.182 35.0911 255.536 39.6091 255.183 38.5693C254.83 37.5296 252.373 31.3158 252.373 31.3158L251.226 26.9092L253.583 25.4238C253.923 25.1455 254.144 24.7518 254.203 24.3207C254.261 23.8896 254.152 23.4527 253.898 23.0968L252.789 21.5248C252.652 21.3322 252.556 21.1148 252.506 20.8852C252.456 20.6556 252.454 20.4185 252.499 20.1879C252.789 18.8387 253.583 16.0413 255.423 15.2367C257.943 14.2094 261.006 15.7071 263.829 16.4003C266.652 17.0934 269.714 14.5931 269.714 14.5931L270.974 18.7026C273.769 16.127 275.754 12.8197 276.696 9.1715C278.108 3.29194 263.677 0.878235 259.052 0.878235C254.427 0.878235 247.092 3.35384 244.975 9.86468C242.858 16.3755 246.664 30.1894 247.911 31.3529Z" fill="#263238" stroke="#263238" stroke-linecap="round" stroke-linejoin="round"/>
<path d="M259.33 9.20866C259.33 9.20866 261.951 13.0706 258.51 13.8752C255.07 14.6798 248.365 11.7833 245.416 12.9097" stroke="white" stroke-width="0.5" stroke-linecap="round" stroke-linejoin="round"/>
<path d="M253.431 17.7248C253.431 17.7248 248.037 17.0807 245.87 19.3349" stroke="white" stroke-width="0.5" stroke-linecap="round" stroke-linejoin="round"/>
<path d="M266.412 37.245C266.412 37.245 262.442 39.2756 260.476 36.8611" stroke="white" stroke-width="0.5" stroke-linecap="round" stroke-linejoin="round"/>
<path d="M248.579 28.6174C248.579 28.6174 244.685 24.4088 244.685 29.0011C244.685 33.5933 245.857 33.5933 248.189 35.1901C250.52 36.7869 251.314 34.8064 251.314 34.8064" fill="white"/>
<path d="M248.579 28.6174C248.579 28.6174 244.685 24.4088 244.685 29.0011C244.685 33.5933 245.857 33.5933 248.189 35.1901C250.52 36.7869 251.314 34.8064 251.314 34.8064" stroke="#263238" stroke-linecap="round" stroke-linejoin="round"/>
<path d="M300.578 313.943H300.755L300.414 312.26L283.401 138.844H231.238L214.086 313.931H214.275L225.34 314.859C225.34 314.859 237.615 274.383 237.615 271.363C237.615 268.342 241.119 240.418 241.119 240.418L258.523 180.322L273.911 240.418C273.911 240.418 277.414 268.404 277.414 271.363C277.414 274.321 289.702 314.884 289.702 314.884L300.112 314.005H300.578V313.943Z" fill="#263238" stroke="#263238" stroke-linecap="round" stroke-linejoin="round"/>
<path d="M279.506 149.043L267.899 165.32" stroke="white" stroke-width="0.5" stroke-linecap="round" stroke-linejoin="round"/>
<path d="M273.293 152.707L266.248 164.107" stroke="white" stroke-width="0.5" stroke-linecap="round" stroke-linejoin="round"/>
<path d="M240.148 151.902L250.495 162.882" stroke="white" stroke-width="0.5" stroke-linecap="round" stroke-linejoin="round"/>
<path d="M239.316 155.962L254.225 170.618" stroke="white" stroke-width="0.5" stroke-linecap="round" stroke-linejoin="round"/>
<path d="M234.338 140.502H280.338" stroke="white" stroke-width="0.5" stroke-linecap="round" stroke-linejoin="round"/>
<path d="M214.275 313.931C214.275 313.931 207.633 319.068 203.802 320.479C199.971 321.89 192.812 325.64 192.812 325.64C192.812 325.64 192.812 327.992 199.025 327.992H223.412L222.996 313.931H214.275Z" fill="#263238" stroke="#263238" stroke-linecap="round" stroke-linejoin="round"/>
<path d="M223.324 325.43C213.586 325.867 203.829 325.714 194.11 324.972L192.85 325.641C192.85 325.641 192.85 327.994 199.063 327.994H223.45L223.324 325.43Z" fill="white" stroke="#263238" stroke-linecap="round" stroke-linejoin="round"/>
<path d="M299.57 313.931C299.57 313.931 306.224 319.068 310.043 320.479C313.862 321.89 321.045 325.64 321.045 325.64C321.045 325.64 321.045 327.992 314.819 327.992H290.446L290.887 313.931H299.57Z" fill="#263238" stroke="#263238" stroke-linecap="round" stroke-linejoin="round"/>
<path d="M290.521 325.43C300.259 325.867 310.016 325.714 319.734 324.972L320.995 325.641C320.995 325.641 320.995 327.994 314.769 327.994H290.446L290.521 325.43Z" fill="white" stroke="#263238" stroke-linecap="round" stroke-linejoin="round"/>
<path d="M220.148 60.0947L200.941 110.461H219.366L226.247 96.7212L220.148 60.0947Z" fill="white" stroke="#263238" stroke-linecap="round" stroke-linejoin="round"/>
<path d="M304.17 102.663C296.482 99.5434 271.819 97.9962 270.533 97.9962C269.248 97.9962 229.159 94.7531 225.869 94.2828C222.58 93.8124 218.812 101.214 218.812 101.214L236.204 100.744L257.363 104.903C257.363 104.903 300.213 120.14 303.439 119.224C303.879 119.081 304.277 118.834 304.599 118.507" fill="white"/>
<path d="M304.17 102.663C296.482 99.5434 271.819 97.9962 270.533 97.9962C269.248 97.9962 229.159 94.7531 225.869 94.2828C222.58 93.8124 218.812 101.214 218.812 101.214L236.204 100.744L257.363 104.903C257.363 104.903 300.213 120.14 303.439 119.224C303.879 119.081 304.277 118.834 304.599 118.507" stroke="#263238" stroke-linecap="round" stroke-linejoin="round"/>
<path d="M214.577 100.298L280.868 93.8372L281.346 99.3701L223.979 116.464C223.979 116.464 213.645 118.766 205.642 117.38C197.639 115.994 201.42 108.146 203.298 103.529" fill="white"/>
<path d="M214.577 100.298L280.868 93.8372L281.346 99.3701L223.979 116.464C223.979 116.464 213.645 118.766 205.642 117.38C197.639 115.994 201.42 108.146 203.298 103.529" stroke="#263238" stroke-linecap="round" stroke-linejoin="round"/>
<path d="M280.88 93.8372L293.571 93.3668L297.327 100.756L281.346 99.3825L280.88 93.8372Z" fill="white" stroke="#263238" stroke-linecap="round" stroke-linejoin="round"/>
<path d="M365.407 202.442L376.232 329.032C376.261 329.221 376.328 329.401 376.431 329.564C376.533 329.726 376.668 329.865 376.827 329.974C376.987 330.083 377.167 330.159 377.357 330.197C377.548 330.235 377.744 330.235 377.934 330.195C378.258 330.117 378.542 329.925 378.735 329.657C378.927 329.389 379.014 329.061 378.98 328.735L371.607 202.479L365.407 202.442Z" fill="#263238" stroke="#263238" stroke-linecap="round" stroke-linejoin="round"/>
<path d="M438.162 202.442L449.026 329.453C449.052 329.642 449.119 329.824 449.221 329.987C449.322 330.15 449.458 330.291 449.617 330.4C449.777 330.509 449.958 330.585 450.149 330.622C450.34 330.659 450.537 330.657 450.727 330.616C451.051 330.537 451.336 330.346 451.528 330.078C451.72 329.81 451.807 329.482 451.773 329.156L444.375 202.442H438.162Z" fill="#263238" stroke="#263238" stroke-linecap="round" stroke-linejoin="round"/>
<path d="M137.915 202.442L132.256 327.93C132.225 328.259 132.314 328.589 132.509 328.859C132.703 329.129 132.989 329.322 133.315 329.403C133.502 329.45 133.697 329.458 133.888 329.424C134.078 329.391 134.259 329.318 134.418 329.21C134.577 329.102 134.71 328.961 134.809 328.798C134.908 328.635 134.97 328.453 134.991 328.264L144.153 202.442H137.915Z" fill="#263238" stroke="#263238" stroke-linecap="round" stroke-linejoin="round"/>
<path d="M70.8558 202.442L65.1594 327.46C65.1312 327.79 65.2235 328.12 65.4197 328.39C65.6159 328.659 65.9033 328.852 66.2306 328.933C66.4177 328.978 66.6124 328.984 66.8019 328.949C66.9913 328.915 67.1712 328.842 67.3297 328.734C67.4881 328.626 67.6215 328.487 67.721 328.325C67.8205 328.163 67.8838 327.982 67.9068 327.794L77.0311 202.392L70.8558 202.442Z" fill="#263238" stroke="#263238" stroke-linecap="round" stroke-linejoin="round"/>
<path d="M452.328 195.424H66.8229V206.291H452.328V195.424Z" fill="#00DFD8" stroke="#263238" stroke-linecap="round" stroke-linejoin="round"/>
<path d="M452.328 195.424H66.8229V199.149H452.328V195.424Z" fill="#263238" stroke="#263238" stroke-linecap="round" stroke-linejoin="round"/>
<path d="M452.315 195.424H355.854V206.291H452.315V195.424Z" fill="#263238" stroke="#263238" stroke-linecap="round" stroke-linejoin="round"/>
<path d="M455.756 191.809H63.3824V195.956H455.756V191.809Z" fill="#00DFD8" stroke="#263238" stroke-linecap="round" stroke-linejoin="round"/>
<path d="M455.743 191.809H359.874V195.956H455.743V191.809Z" fill="#263238" stroke="#263238" stroke-linecap="round" stroke-linejoin="round"/>
<path d="M150.782 191.438H203.436C203.637 191.439 203.834 191.382 204.002 191.275C204.17 191.167 204.302 191.013 204.382 190.831L218.963 158.178C219.03 158.025 219.057 157.858 219.042 157.692C219.027 157.526 218.97 157.366 218.876 157.228C218.782 157.089 218.654 156.975 218.505 156.897C218.355 156.819 218.187 156.778 218.018 156.779H165.364C165.166 156.779 164.973 156.835 164.808 156.941C164.642 157.046 164.511 157.197 164.431 157.374L149.9 190.027C149.832 190.176 149.802 190.339 149.813 190.501C149.824 190.664 149.875 190.822 149.962 190.961C150.049 191.1 150.169 191.216 150.312 191.299C150.455 191.382 150.616 191.43 150.782 191.438Z" fill="white" stroke="#263238" stroke-linecap="round" stroke-linejoin="round"/>
<path d="M155.723 188.888H200.651C200.819 188.888 200.984 188.84 201.125 188.75C201.266 188.66 201.377 188.531 201.445 188.38L213.884 160.518C213.951 160.386 213.983 160.24 213.976 160.093C213.969 159.946 213.923 159.803 213.843 159.678C213.763 159.554 213.652 159.452 213.52 159.382C213.388 159.312 213.24 159.277 213.09 159.28H168.161C167.99 159.279 167.822 159.327 167.678 159.42C167.534 159.512 167.422 159.644 167.355 159.8L154.941 187.687C154.883 187.816 154.858 187.958 154.869 188.098C154.88 188.239 154.926 188.375 155.003 188.494C155.081 188.613 155.187 188.711 155.312 188.78C155.438 188.849 155.579 188.886 155.723 188.888Z" fill="#00DFD8" stroke="#263238" stroke-linecap="round" stroke-linejoin="round"/>
<path d="M204.167 189.272H125.06V191.81H204.167V189.272Z" fill="white" stroke="#263238" stroke-linecap="round" stroke-linejoin="round"/>
<path d="M204.18 189.272H165.83V191.81H204.18V189.272Z" fill="white" stroke="#263238" stroke-linecap="round" stroke-linejoin="round"/>
<path d="M229.587 171.608H215.636V191.859H229.587V171.608Z" fill="white" stroke="#263238" stroke-linecap="round" stroke-linejoin="round"/>
<path d="M228.97 189.098H227.508C227.203 189.098 226.912 188.98 226.697 188.768C226.482 188.557 226.361 188.271 226.361 187.972C226.361 187.673 226.482 187.387 226.697 187.176C226.912 186.964 227.203 186.846 227.508 186.846H228.97C229.547 186.842 230.099 186.616 230.508 186.215C230.916 185.814 231.147 185.271 231.15 184.704V179.753C231.147 179.186 230.916 178.643 230.508 178.242C230.099 177.842 229.547 177.615 228.97 177.612H227.092C226.941 177.612 226.792 177.582 226.653 177.526C226.514 177.469 226.387 177.386 226.281 177.282C226.174 177.177 226.09 177.053 226.032 176.916C225.975 176.78 225.945 176.633 225.945 176.485C225.945 176.337 225.975 176.191 226.032 176.054C226.09 175.917 226.174 175.793 226.281 175.689C226.387 175.584 226.514 175.501 226.653 175.445C226.792 175.388 226.941 175.359 227.092 175.359H228.97C229.557 175.359 230.139 175.472 230.682 175.693C231.225 175.914 231.718 176.238 232.133 176.646C232.549 177.054 232.878 177.538 233.103 178.071C233.328 178.605 233.444 179.176 233.444 179.753V184.704C233.444 185.281 233.328 185.853 233.103 186.386C232.878 186.919 232.549 187.403 232.133 187.811C231.718 188.219 231.225 188.543 230.682 188.764C230.139 188.985 229.557 189.098 228.97 189.098Z" fill="white" stroke="#263238" stroke-linecap="round" stroke-linejoin="round"/>
<path d="M338.588 191.438H285.934C285.735 191.437 285.541 191.379 285.376 191.271C285.21 191.163 285.08 191.011 285.001 190.831L270.42 158.178C270.353 158.026 270.326 157.86 270.341 157.695C270.355 157.53 270.411 157.371 270.504 157.233C270.596 157.094 270.722 156.98 270.87 156.901C271.018 156.822 271.184 156.78 271.353 156.779H324.007C324.206 156.778 324.401 156.834 324.569 156.939C324.736 157.045 324.869 157.196 324.952 157.374L339.533 190.027C339.6 190.181 339.626 190.348 339.611 190.515C339.596 190.681 339.539 190.841 339.445 190.981C339.352 191.12 339.224 191.235 339.075 191.315C338.925 191.395 338.758 191.437 338.588 191.438Z" fill="white" stroke="#263238" stroke-linecap="round" stroke-linejoin="round"/>
<path d="M285.203 191.809H364.31V189.27H285.203V191.809Z" fill="white" stroke="#263238" stroke-linecap="round" stroke-linejoin="round"/>
<path d="M285.203 191.809H339.748V189.27H285.203V191.809Z" fill="white" stroke="#263238" stroke-linecap="round" stroke-linejoin="round"/>
<path d="M305.846 170.333C306.132 170.863 306.251 171.464 306.19 172.061C306.129 172.657 305.891 173.223 305.504 173.687C305.117 174.15 304.599 174.492 304.016 174.668C303.432 174.844 302.809 174.847 302.224 174.676C301.638 174.505 301.118 174.169 300.726 173.709C300.335 173.249 300.091 172.685 300.024 172.09C299.957 171.494 300.071 170.892 300.351 170.359C300.632 169.826 301.066 169.387 301.599 169.096C302.33 168.708 303.187 168.621 303.983 168.853C304.779 169.085 305.449 169.617 305.846 170.333Z" fill="white" stroke="#263238" stroke-linecap="round" stroke-linejoin="round"/>
<path d="M59.6267 74.218L63.5084 111.884L81.1522 162.052L75.1155 165.444L54.3966 119.522L44.0498 80.0976C44.0498 80.0976 43.1802 68.2395 47.5029 66.4818C51.8257 64.7241 57.9002 66.5932 59.6267 74.218Z" fill="white" stroke="#263238" stroke-linecap="round" stroke-linejoin="round"/>
<path d="M81.2026 162.102C81.2026 162.102 85.0842 170.16 85.5253 172.277C85.9664 174.393 86.4075 178.713 84.7061 180.644C82.6519 182.971 80.7741 181.176 80.7741 181.176C80.7741 181.176 75.5944 179.939 75.5944 175.668C75.5944 171.398 75.1659 165.494 75.1659 165.494L81.2026 162.102Z" fill="white" stroke="#263238" stroke-linecap="round" stroke-linejoin="round"/>
<path d="M76.9681 174.74L84.2398 176.598" stroke="#263238" stroke-linecap="round" stroke-linejoin="round"/>
<path d="M78.7073 169.925L80.7741 173.118C80.7741 173.118 75.9599 181.201 78.5434 179.085C81.127 176.968 85.9538 174.393 85.5253 172.277C84.7955 170.056 83.8325 167.915 82.6519 165.89" fill="white"/>
<path d="M78.7073 169.925L80.7741 173.118C80.7741 173.118 75.9599 181.201 78.5434 179.085C81.127 176.968 85.9538 174.393 85.5253 172.277C84.7955 170.056 83.8325 167.915 82.6519 165.89" stroke="#263238" stroke-linecap="round" stroke-linejoin="round"/>
<path d="M38.9961 28.9516C38.9961 28.9516 34.5599 24.248 24.3265 27.2682C14.0931 30.2884 11.7238 46.3799 12.0388 54.4132C12.3539 62.4465 20.2306 71.5072 17.8487 75.5301C15.4668 79.5529 6.58185 88.9355 7.2624 99.0483C7.94295 109.161 16.475 117.145 28.7626 113.456C41.0503 109.768 38.9961 95.0007 36.5511 89.6039C34.1062 84.2071 39.2859 81.8924 40.9873 70.158C42.6887 58.4237 31.7747 48.7069 31.7747 40.327C31.7747 31.9471 40.5966 33.2963 40.5966 33.2963L38.9961 28.9516Z" fill="#263238" stroke="#263238" stroke-linecap="round" stroke-linejoin="round"/>
<path d="M23.6208 60.7631C25.2339 64.0309 27.1117 67.5215 28.9769 71.2844C35.2027 83.7615 30.338 88.2671 20.8734 95.174C11.4087 102.081 13.5764 110.572 16.0087 111.884" stroke="white" stroke-width="0.5" stroke-linecap="round" stroke-linejoin="round"/>
<path d="M35.7446 32.2565C35.7446 32.2565 23.041 33.3211 19.7895 41.2801C17.8235 46.1199 19.3358 51.5415 22.2344 57.8543" stroke="white" stroke-width="0.5" stroke-linecap="round" stroke-linejoin="round"/>
<path d="M26.4564 108.777C27.4337 109.139 28.476 109.299 29.5188 109.249" stroke="white" stroke-width="0.5" stroke-linecap="round" stroke-linejoin="round"/>
<path d="M38.9961 31.4272C38.9961 31.4272 27.0991 33.5439 24.4021 42.0352C21.7051 50.5265 37.6476 63.0778 38.4541 72.3118C39.2607 81.5458 27.9057 86.9426 23.8728 94.1095C21.0372 99.135 21.3522 104.668 24.3391 107.453" stroke="white" stroke-width="0.5" stroke-linecap="round" stroke-linejoin="round"/>
<path d="M69.5199 202.331C69.5199 202.331 66.5835 227.235 63.6344 235.182C60.6854 243.128 54.0815 305.576 53.7161 309.19C53.3506 312.804 63.2689 321.098 67.3144 323.635C71.3599 326.173 69.5199 326.878 65.1089 327.237C60.698 327.596 55.5561 326.878 53.3506 322.905C51.1451 318.931 45.9906 317.855 45.9906 317.855L45.2596 326.519H43.7851L42.6887 315.688C42.3139 313.229 42.6957 310.716 43.7851 308.472C45.6251 304.499 46.3057 296.193 46.3057 284.954C46.3057 273.715 44.1002 255.705 45.1966 247.04C46.2931 238.375 50.7166 231.877 50.7166 224.66C50.7166 217.444 51.0821 206.613 51.0821 206.613L69.5199 202.331Z" fill="white" stroke="#263238" stroke-linecap="round" stroke-linejoin="round"/>
<path d="M42.6887 315.688C42.3959 313.826 42.5557 311.921 43.155 310.131C45.4361 313.918 51.9769 319.055 57.018 321.098C59.7513 322.26 62.7311 322.753 65.7012 322.533C66.2936 322.967 66.8481 323.338 67.3144 323.635C71.3599 326.111 69.5199 326.878 65.1089 327.237C60.698 327.596 55.5561 326.878 53.3506 322.905C51.1451 318.931 45.9906 317.855 45.9906 317.855L45.2596 326.519H43.7851L42.6887 315.688Z" fill="#263238" stroke="#263238" stroke-linecap="round" stroke-linejoin="round"/>
<path d="M48.196 206.304C48.196 206.304 41.8947 224.71 36.0722 240.591C30.2498 256.472 16.2229 292.938 14.7484 299.436C13.2739 305.934 12.5429 317.855 8.44706 323.994C4.35117 330.134 0.356104 333.018 1.08706 322.187C1.81802 311.356 8.44705 303.409 9.90897 295.104C11.3709 286.798 12.1144 256.843 17.2564 243.487C22.3983 230.132 27.9183 219.301 28.5988 215.327C29.1014 211.373 29.3455 207.392 29.3298 203.407L48.196 206.304Z" fill="white" stroke="#263238" stroke-linecap="round" stroke-linejoin="round"/>
<path d="M1.84325 317.545C1.89757 319.587 2.5447 321.571 3.70846 323.264C5.82571 325.591 9.24106 321.073 11.018 318.313C10.4366 320.303 9.58908 322.21 8.4975 323.982C4.45202 330.109 0.406542 333.005 1.1375 322.175C1.25908 320.617 1.49494 319.07 1.84325 317.545Z" fill="#263238" stroke="#263238" stroke-linecap="round" stroke-linejoin="round"/>
<path d="M45.2974 61.0107C45.2974 61.0107 43.0919 62.8178 41.6174 75.0968C40.1429 87.3758 49.3429 125.636 49.3429 125.636C49.3429 125.636 33.5391 151.061 29.8591 163.699C26.1791 176.337 23.9736 223.683 23.9736 223.683C23.9736 223.683 31.6991 226.579 47.5029 227.656C63.3067 228.733 71.7631 224.772 71.7631 224.772C71.7631 224.772 72.4941 157.2 72.4941 146.79C72.4941 136.38 73.2377 112.701 74.3341 109.817C75.4305 106.933 78.745 99.3454 78.745 96.4613C78.745 93.5772 56.6399 62.8178 56.6399 62.8178L45.2974 61.0107Z" fill="white" stroke="#263238" stroke-linecap="round" stroke-linejoin="round"/>
<path d="M29.8213 163.699C32.7199 153.796 44.7177 127.456 49.0026 122.926C55.5182 125.055 67.4026 127.159 72.7083 125.599C72.5445 129.313 72.4563 143.176 72.4563 146.728C72.4563 157.2 71.7253 224.71 71.7253 224.71C71.7253 224.71 63.2689 228.683 47.4651 227.594C31.6613 226.505 23.9358 223.621 23.9358 223.621C23.9358 223.621 26.1413 176.337 29.8213 163.699Z" fill="#263238" stroke="#263238" stroke-linecap="round" stroke-linejoin="round"/>
<path d="M53.4514 18.455C53.4514 18.455 57.396 10.0132 65.1971 10.0132C72.9982 10.0132 76.464 16.8211 74.7374 22.7749C73.0108 28.7288 79.9297 27.033 80.7993 30.8702C81.6689 34.7074 75.1659 37.2449 71.7001 37.2449C68.2344 37.2449 53.4514 18.455 53.4514 18.455Z" fill="#263238" stroke="#263238" stroke-linecap="round" stroke-linejoin="round"/>
<path d="M64.8443 17.5886C67.1632 16.3508 69.8854 15.4596 71.1456 17.3905C73.578 21.1039 66.0163 24.0252 68.4486 28.0109C70.881 31.9966 76.8295 30.9321 76.5522 32.2565C76.275 33.581 72.5067 34.3732 72.5067 34.3732" stroke="white" stroke-width="0.5" stroke-linecap="round" stroke-linejoin="round"/>
<path d="M60.8744 20.288C60.8744 20.288 61.618 19.6563 62.727 18.8882" stroke="white" stroke-width="0.5" stroke-linecap="round" stroke-linejoin="round"/>
<path d="M73.4519 38.099C72.9003 37.6962 72.4657 37.1585 72.1917 36.5393C71.5615 31.9718 70.2004 27.4786 67.6295 24.9535C63.7402 21.3575 58.7801 19.08 53.4766 18.455C51.9062 18.2277 50.3032 18.372 48.801 18.8759C42.109 21.1782 36.3621 25.7209 37.5972 36.6755C38.9583 48.7441 48.5237 51.7643 48.5237 51.7643L49.2043 59.1911L58.7572 63.5482L59.0974 55.5024C59.0974 55.5024 65.5752 58.1761 67.9193 57.8419C70.2634 57.5077 70.9944 54.4874 72.0152 50.1304C72.39 48.1423 72.5756 46.1242 72.5697 44.1023L75.4306 41.3049C77.0563 39.6833 75.4558 39.2872 73.4519 38.099Z" fill="white" stroke="#263238" stroke-linecap="round" stroke-linejoin="round"/>
<path d="M37.572 36.6755C36.3117 25.7209 42.0837 21.1782 48.7758 18.8759C50.278 18.372 51.881 18.2277 53.4514 18.455C57.0671 18.9298 60.5478 20.1171 63.6848 21.9456C61.7692 21.5619 65.0333 27.0949 62.0339 30.6102C59.4073 33.8736 56.0585 36.5066 52.2415 38.3094C52.2415 38.3094 48.8388 35.6233 47.8054 39.312C46.772 43.0006 47.1248 45.6743 49.8596 46.3551C52.5944 47.0359 53.6404 46.3551 53.6404 46.3551C53.6404 46.3551 51.8257 50.576 48.5994 52.3213V51.7148C48.5994 51.7148 38.9961 48.7564 37.572 36.6755Z" fill="#263238" stroke="#263238" stroke-linecap="round" stroke-linejoin="round"/>
<path d="M63.6344 61.3696L61.807 71.1235L42.3232 61.0106L44.1632 51.9871L63.6344 61.3696Z" fill="white" stroke="#263238" stroke-linecap="round" stroke-linejoin="round"/>
<path d="M54.2202 143.609C56.2379 144.033 58.2854 144.306 60.3451 144.426C61.9456 144.327 64.1259 142.557 65.7391 143.312C67.3522 144.067 69.6081 148.833 69.6081 148.833C69.6081 148.833 71.7505 149.897 71.133 151.024C70.5155 152.15 67.8689 153.19 67.8689 153.19C67.8689 153.19 65.3484 155.529 63.8864 155.764C62.4245 156 53.5144 149.575 53.5144 149.575L54.2202 143.609Z" fill="white" stroke="#263238" stroke-linecap="round" stroke-linejoin="round"/>
<path d="M55.1654 148.239C55.4604 147.891 55.6723 147.482 55.7855 147.043C55.8988 146.604 55.9105 146.146 55.8199 145.702C55.7292 145.258 55.5385 144.839 55.2617 144.477C54.9848 144.115 54.629 143.819 54.2202 143.609L29.7331 121.081L56.4004 80.3575C57.5903 78.2043 57.8792 75.6805 57.2059 73.3215C56.5326 70.9625 54.95 68.954 52.7939 67.7221C50.6378 66.4901 48.0779 66.1317 45.6572 66.7228C43.2365 67.3139 41.1455 68.8081 39.8279 70.8883L16.7145 116.006C15.5127 117.152 14.8179 118.715 14.7802 120.36C14.7424 122.004 15.3648 123.597 16.5128 124.795L16.601 124.881C18.9199 128.397 44.4278 146.778 51.8887 149.179C52.4682 149.36 53.0893 149.366 53.6728 149.199C54.2564 149.031 54.7759 148.697 55.1654 148.239Z" fill="white" stroke="#263238" stroke-linecap="round" stroke-linejoin="round"/>
<path d="M152.055 85.8905C152.055 85.8905 155.218 95.5082 155.218 97.3773C155.195 98.7273 155.09 100.075 154.903 101.412L157.688 105.658C157.852 105.931 157.902 106.255 157.83 106.564C157.757 106.872 157.567 107.142 157.298 107.317L153 109.792C153 109.792 152.37 119.695 151.74 120.933C151.11 122.17 140.398 121.873 140.398 121.873L136.919 128.384L118.897 121.564L123.636 108.827L122.653 89.6039C122.653 89.6039 133.718 79.9985 152.055 85.8905Z" fill="white" stroke="#263238" stroke-linecap="round" stroke-linejoin="round"/>
<path d="M139.717 109.285C139.717 109.285 136.579 112.181 134.222 112.379C131.866 112.577 124.203 110.832 123.611 110.065C123.018 109.297 117.725 98.4913 117.914 93.2801C118.103 88.069 118.318 80.3575 124.001 77.8571C129.685 75.3568 138.734 76.1118 143.447 73.2278C148.161 70.3437 155.622 68.0166 159.554 73.0297C163.486 78.0428 160.537 84.9869 157.399 87.8833C154.261 90.7798 150.329 91.5967 150.719 92.8345C151.11 94.0723 153.467 95.5329 152.093 97.4639C150.719 99.3949 145.792 101.177 145.792 101.895C145.792 102.613 146.976 105.373 145.602 105.757C144.229 106.141 142.842 103.059 141.469 103.059C140.095 103.059 137.171 106.785 139.717 109.285Z" fill="#263238" stroke="#263238" stroke-linecap="round" stroke-linejoin="round"/>
<path d="M131.513 100.435C130.947 101.057 130.464 101.748 130.076 102.491" stroke="white" stroke-width="0.5" stroke-linecap="round" stroke-linejoin="round"/>
<path d="M157.323 80.4441C157.074 82.5685 156.285 84.5975 155.03 86.3449C153.775 88.0923 152.094 89.5023 150.139 90.4456C145.098 93.0078 138.381 95.0997 133.92 98.318" stroke="white" stroke-width="0.5" stroke-linecap="round" stroke-linejoin="round"/>
<path d="M150.719 92.8964C150.719 92.8964 146.245 96.6098 141.456 100.435C138.188 102.919 134.555 104.902 130.681 106.314" stroke="white" stroke-width="0.5" stroke-linecap="round" stroke-linejoin="round"/>
<path d="M139.402 109.805L141.922 110.424C141.77 111.581 141.86 112.757 142.187 113.879C142.514 115 143.072 116.045 143.826 116.947" fill="white"/>
<path d="M139.402 109.805L141.922 110.424C141.77 111.581 141.86 112.757 142.187 113.879C142.514 115 143.072 116.045 143.826 116.947" stroke="#263238" stroke-linecap="round" stroke-linejoin="round"/>
<path d="M142.326 103.158L160.121 98.8255" stroke="#263238" stroke-linecap="round" stroke-linejoin="round"/>
<path d="M155.546 98.4789L159.604 98.6522C159.604 98.6522 161.003 103.158 156.781 103.678" stroke="#263238" stroke-linecap="round" stroke-linejoin="round"/>
<path d="M137.6 312.482C137.6 312.482 153.983 322.645 156.869 322.645C159.755 322.645 161.192 325.195 159.755 325.479C158.319 325.764 149.396 326.036 143.372 326.321C137.348 326.606 133.29 326.036 129.849 326.036C126.409 326.036 122.363 326.321 120.636 325.479C118.91 324.638 121.796 315.02 121.796 313.324C121.796 311.628 135.583 311.344 137.6 312.482Z" fill="#263238" stroke="#263238" stroke-linecap="round" stroke-linejoin="round"/>
<path d="M158.722 323.066C152.358 325.12 142.036 323.771 135.835 323.214C130.933 322.781 123.233 322.682 120.095 322.657C119.969 324.105 120.095 325.207 120.586 325.479C122.313 326.321 126.346 326.036 129.799 326.036C133.252 326.036 137.272 326.606 143.321 326.321C149.371 326.036 158.281 325.752 159.705 325.479C160.827 325.257 160.297 323.796 158.722 323.066Z" fill="white" stroke="#263238" stroke-linecap="round" stroke-linejoin="round"/>
<path d="M150.543 242.67L137.612 306.355L140.309 312.965C138.374 315.718 135.454 317.654 132.13 318.387C128.434 319.1 124.68 319.482 120.914 319.526C120.914 319.526 119.477 312.458 120.347 311.604C121.216 310.75 121.493 307.37 121.493 307.37L128.967 243.227L150.543 242.67Z" fill="#00DFD8" stroke="#263238" stroke-linecap="round" stroke-linejoin="round"/>
<path d="M189.951 310.329C189.951 310.329 200.034 318.523 204.634 319.934C209.234 321.345 214.124 322.756 214.124 324.167C214.124 325.578 203.197 326.99 194.854 326.148C186.511 325.306 173.845 321.63 170.972 321.63C168.098 321.63 168.665 314.277 168.665 313.151C168.665 312.024 182.768 302.976 189.951 310.329Z" fill="#263238" stroke="#263238" stroke-linecap="round" stroke-linejoin="round"/>
<path d="M214.174 324.167C214.174 323.66 213.531 323.152 212.51 322.645C204.275 323.727 195.927 323.669 187.708 322.472C179.428 321.308 172.497 319.748 168.955 318.882C169.258 320.404 169.85 321.63 171.022 321.63C173.896 321.63 186.561 325.343 194.904 326.148C203.247 326.952 214.174 325.578 214.174 324.167Z" fill="white" stroke="#263238" stroke-linecap="round" stroke-linejoin="round"/>
<path d="M139.906 214.127C148.533 213.478 157.204 213.669 165.792 214.696C180.462 216.392 213.241 218.41 213.808 222.049C214.376 225.688 188.376 302.172 188.376 304.14C188.376 306.108 190.67 308.101 191.25 309.227C191.615 310.03 191.812 310.897 191.829 311.777C191.829 311.777 184.784 319.204 179.315 321.221C173.845 323.239 169.233 321.345 168.098 321.345C166.964 321.345 166.951 313.72 167.821 310.044C168.691 306.368 170.115 297.047 170.405 296.205C170.695 295.364 186.448 240.975 186.448 240.975C186.448 240.975 143.599 247.758 118.003 244.923C92.4064 242.089 89.8102 238.152 88.3735 232.211C86.9368 226.27 89.8102 214.411 89.8102 214.411L139.906 214.127Z" fill="#00DFD8" stroke="#263238" stroke-linecap="round" stroke-linejoin="round"/>
<path d="M136.667 232.434C136.086 233.26 135.437 234.039 134.726 234.762" stroke="#263238" stroke-linecap="round" stroke-linejoin="round"/>
<path d="M144.506 217.234C142.852 221.302 140.946 225.266 138.797 229.104" stroke="#263238" stroke-linecap="round" stroke-linejoin="round"/>
<path d="M141.078 220.068C137.607 225.692 132.351 230.041 126.119 232.446" stroke="#263238" stroke-linecap="round" stroke-linejoin="round"/>
<path d="M206.385 235.665C207.368 235.293 208.314 234.91 209.208 234.513L206.385 235.665Z" fill="white"/>
<path d="M206.385 235.665C207.368 235.293 208.314 234.91 209.208 234.513" stroke="#263238" stroke-linecap="round" stroke-linejoin="round"/>
<path d="M186.448 240.975C191.984 239.925 197.454 238.565 202.831 236.902L186.448 240.975Z" fill="white"/>
<path d="M186.448 240.975C191.984 239.925 197.454 238.565 202.831 236.902" stroke="#263238" stroke-linecap="round" stroke-linejoin="round"/>
<path d="M219.707 147.137C220.311 144.773 221.32 144.958 220.513 144.179C219.404 143.089 218.509 144.377 215.296 146.147C212.082 147.917 208.881 150.083 208.881 150.083C208.951 149.426 209.229 148.807 209.675 148.313C210.487 147.008 210.923 145.51 210.935 143.981C210.935 142.743 209.927 142.99 209.524 144.179C209.12 145.367 205.516 147.521 205.314 148.511C205.113 149.501 204.394 153.388 204.394 153.388C203.247 155.084 203.247 162.993 203.247 162.993L179.895 180.223L168.098 193.839C168.098 193.839 173.278 202.033 176.151 200.907C179.025 199.781 180.462 198.642 187.368 192.985C193.216 188.195 207.873 166.1 207.873 166.1C210.426 164.525 212.841 162.745 215.094 160.777C217.693 157.89 219.229 154.228 219.454 150.38C219.4 149.293 219.485 148.203 219.707 147.137Z" fill="white" stroke="#263238" stroke-linecap="round" stroke-linejoin="round"/>
<path d="M111.651 120.995C111.651 120.995 113.869 112.825 123.296 114.459C132.723 116.093 139.931 123.718 141.595 126.441C143.258 129.164 111.096 125.352 111.096 125.352L111.651 120.995Z" fill="white" stroke="#263238" stroke-linecap="round" stroke-linejoin="round"/>
<path d="M165.994 192.341C165.994 192.341 163.801 194.668 165.994 198.332C167.493 200.87 170.14 202.813 175.206 201.959C179.945 201.142 187.065 189.581 187.065 181.449C187.065 173.316 180.966 172.784 178.748 174.369C176.53 175.953 165.994 192.341 165.994 192.341Z" fill="white" stroke="#263238" stroke-linecap="round" stroke-linejoin="round"/>
<path d="M115.734 120.041C115.734 120.041 93.3012 130.501 90.1379 132.419C86.9746 134.338 84.9582 158.97 84.9582 163.216C84.9582 167.462 88.1215 209.015 88.9785 216.045C89.8354 223.076 117.461 227.916 126.673 225.366C135.886 222.816 144.859 216.392 144.859 214.127C144.859 211.862 143.989 192.663 144.569 188.987C145.149 185.311 150.316 169.776 150.316 169.776L166.019 194.384C166.019 194.384 167.67 197.404 173.505 195.027C181.848 191.636 182.541 178.528 182.541 178.528C182.541 178.528 173.341 162.708 170.745 154.799C168.149 146.889 166.964 140.948 165.855 139.537C164.746 138.126 138.81 126.255 134.21 123.148C131.605 121.222 128.569 119.934 125.356 119.394C122.142 118.853 118.843 119.075 115.734 120.041Z" fill="white" stroke="#263238" stroke-linecap="round" stroke-linejoin="round"/>
<path d="M150.253 169.776L142.779 159.032" stroke="#263238" stroke-linecap="round" stroke-linejoin="round"/>
<path d="M149.043 168.241L135.873 161.867" stroke="#263238" stroke-linecap="round" stroke-linejoin="round"/>
<path d="M110.012 249.28L121.506 329.515C121.533 329.701 121.598 329.879 121.699 330.039C121.8 330.198 121.933 330.335 122.091 330.441C122.249 330.547 122.427 330.62 122.615 330.654C122.803 330.689 122.996 330.684 123.182 330.641C123.505 330.563 123.789 330.374 123.983 330.108C124.177 329.843 124.269 329.518 124.241 329.193L116.137 247.956L110.012 249.28Z" fill="#263238" stroke="#263238" stroke-linecap="round" stroke-linejoin="round"/>
<path d="M76.9932 249.912L57.7867 328.71C57.7428 328.893 57.7382 329.082 57.7731 329.267C57.8081 329.452 57.882 329.627 57.9899 329.782C58.0979 329.937 58.2375 330.068 58.4 330.167C58.5625 330.266 58.7442 330.33 58.9335 330.356C59.2622 330.404 59.5973 330.333 59.8759 330.155C60.1545 329.977 60.3572 329.705 60.4459 329.391L82.7527 252.919L76.9932 249.912Z" fill="#263238" stroke="#263238" stroke-linecap="round" stroke-linejoin="round"/>
<path d="M111.878 248.934L99.653 329.057C99.6247 329.241 99.6354 329.43 99.6845 329.61C99.7335 329.791 99.8198 329.959 99.938 330.105C100.056 330.252 100.204 330.373 100.372 330.46C100.539 330.548 100.724 330.601 100.913 330.616C101.245 330.634 101.571 330.534 101.833 330.334C102.095 330.133 102.274 329.847 102.337 329.527L117.851 251.446L111.878 248.934Z" fill="#263238" stroke="#263238" stroke-linecap="round" stroke-linejoin="round"/>
<path d="M155.155 249.28L166.649 329.515C166.675 329.701 166.741 329.879 166.842 330.039C166.943 330.198 167.076 330.335 167.234 330.441C167.392 330.547 167.57 330.62 167.758 330.654C167.946 330.689 168.139 330.684 168.325 330.641C168.648 330.563 168.932 330.374 169.126 330.108C169.32 329.843 169.412 329.518 169.384 329.193L161.242 247.931L155.155 249.28Z" fill="#263238" stroke="#263238" stroke-linecap="round" stroke-linejoin="round"/>
<path d="M58.8075 166.013L72.7966 255.346H172.282C172.282 255.346 173.757 229.599 169.371 220.501C164.985 211.404 110.832 230.911 108.878 230.404C107.429 230.045 109.571 183.924 112.23 165.902C112.417 164.633 112.323 163.34 111.955 162.11C111.588 160.88 110.955 159.743 110.101 158.774C109.246 157.805 108.189 157.029 107.002 156.497C105.814 155.964 104.525 155.689 103.22 155.69H67.8059C66.4908 155.689 65.1911 155.967 63.9962 156.507C62.8013 157.046 61.7397 157.834 60.8844 158.815C60.0292 159.796 59.4007 160.948 59.0421 162.19C58.6836 163.433 58.6035 164.737 58.8075 166.013Z" fill="#00DFD8" stroke="#263238" stroke-linecap="round" stroke-linejoin="round"/>
<path d="M169.371 220.501C164.985 211.404 110.832 230.911 108.878 230.404C107.429 230.045 109.571 183.924 112.23 165.902C112.463 164.649 112.411 163.362 112.08 162.131C111.748 160.9 111.144 159.757 110.311 158.781C109.478 157.806 108.437 157.022 107.261 156.487C106.085 155.952 104.803 155.677 103.507 155.684C102.21 155.69 100.932 155.977 99.761 156.524C98.5905 157.071 97.5571 157.865 96.7344 158.849C95.9116 159.833 95.3197 160.983 95.0008 162.217C94.6819 163.451 94.6437 164.738 94.8891 165.989L108.878 255.321H172.282C172.282 255.321 173.757 229.599 169.371 220.501Z" fill="#263238" stroke="#263238" stroke-linecap="round" stroke-linejoin="round"/>
<path d="M219.707 147.137C219.707 147.137 218.106 148.709 215.699 151.469L219.707 147.137Z" fill="white"/>
<path d="M219.707 147.137C219.707 147.137 218.106 148.709 215.699 151.469" stroke="#263238" stroke-linecap="round" stroke-linejoin="round"/>
<path d="M219.454 150.33C219.454 150.33 217.501 154.229 216.304 156L219.454 150.33Z" fill="white"/>
<path d="M219.454 150.33C219.454 150.33 217.501 154.229 216.304 156" stroke="#263238" stroke-linecap="round" stroke-linejoin="round"/>
</svg>
